<svg width="48" height="57" viewBox="0 0 48 57" fill="none" xmlns="http://www.w3.org/2000/svg">
<path d="M14.4298 3.91269C20.483 1.02389 27.5172 1.02389 33.5704 3.91269C39.6839 6.83039 44.1349 12.3878 45.6553 18.9891C47.1395 25.4332 45.6843 32.2136 41.6801 37.4762L39.6928 40.0882C38.7306 41.3527 37.6626 42.5331 36.5003 43.6164L24.4938 54.8069C24.2283 55.0964 23.7718 55.0964 23.5064 54.8069L11.4999 43.6164C10.3376 42.5331 9.2695 41.3527 8.3074 40.0882L6.32 37.4762C2.3158 32.2136 0.860696 25.4332 2.3449 18.9891C3.8652 12.3878 8.3162 6.83039 14.4298 3.91269Z" stroke="#7D4B31" stroke-width="3" stroke-linecap="round" stroke-linejoin="round"/>
<path d="M19.769 13.0834C22.4461 11.8107 25.5539 11.8107 28.231 13.0834L28.325 13.128C30.981 14.3907 32.9153 16.7968 33.5777 19.6621C34.2455 22.5502 33.5326 25.603 31.6699 27.9088C29.8219 30.1965 27.0241 31.544 24.0833 31.544H23.9168C20.9759 31.544 18.1782 30.1965 16.3302 27.9088C14.4674 25.603 13.7546 22.5502 14.4223 19.6621C15.0848 16.7968 17.0191 14.3907 19.6751 13.128L19.769 13.0834Z" stroke="#7D4B31" stroke-width="3" stroke-linecap="round" stroke-linejoin="round"/>
</svg>
