<svg width="52" height="52" viewBox="0 0 52 52" fill="none" xmlns="http://www.w3.org/2000/svg">
<path d="M38 15.3432V33.6908C38 37.0094 40.694 39.6978 44.0127 39.6908C47.3214 39.6837 50 36.9995 50 33.6908V26.3447C50 13.0899 39.2548 2.34473 26 2.34473C12.7451 2.34473 2 13.0899 2 26.3447C2 39.5995 12.7451 50.3447 26 50.3447H38M14 27.678V25.012C14 18.3849 19.3722 13.0124 25.9993 13.012C32.627 13.0117 38 18.3843 38 25.012V27.678C38 34.3055 32.6274 39.678 26 39.678C19.3726 39.678 14 34.3055 14 27.678Z" stroke="#7D4B31" stroke-width="3" stroke-linecap="round" stroke-linejoin="round"/>
</svg>
