<svg width="80" height="81" viewBox="0 0 80 81" fill="none" xmlns="http://www.w3.org/2000/svg">
<path d="M60 5.34473H20C11.7157 5.34473 5 12.0605 5 20.3447V60.3447C5 68.629 11.7157 75.3447 20 75.3447H60C68.2843 75.3447 75 68.629 75 60.3447V20.3447C75 12.0605 68.2843 5.34473 60 5.34473Z" fill="url(#paint0_radial_324_398)"/>
<path d="M60 5.34473H20C11.7157 5.34473 5 12.0605 5 20.3447V60.3447C5 68.629 11.7157 75.3447 20 75.3447H60C68.2843 75.3447 75 68.629 75 60.3447V20.3447C75 12.0605 68.2843 5.34473 60 5.34473Z" fill="url(#paint1_radial_324_398)"/>
<path d="M60 5.34473H20C11.7157 5.34473 5 12.0605 5 20.3447V60.3447C5 68.629 11.7157 75.3447 20 75.3447H60C68.2843 75.3447 75 68.629 75 60.3447V20.3447C75 12.0605 68.2843 5.34473 60 5.34473Z" fill="url(#paint2_radial_324_398)"/>
<path d="M57.5 26.5947C57.5 28.6658 55.8211 30.3447 53.75 30.3447C51.6789 30.3447 50 28.6658 50 26.5947C50 24.5236 51.6789 22.8447 53.75 22.8447C55.8211 22.8447 57.5 24.5236 57.5 26.5947Z" fill="white"/>
<path fill-rule="evenodd" clip-rule="evenodd" d="M40 52.8447C46.9036 52.8447 52.5 47.2483 52.5 40.3447C52.5 33.4411 46.9036 27.8447 40 27.8447C33.0964 27.8447 27.5 33.4411 27.5 40.3447C27.5 47.2483 33.0964 52.8447 40 52.8447ZM40 47.8447C44.1421 47.8447 47.5 44.4868 47.5 40.3447C47.5 36.2026 44.1421 32.8447 40 32.8447C35.8579 32.8447 32.5 36.2026 32.5 40.3447C32.5 44.4868 35.8579 47.8447 40 47.8447Z" fill="white"/>
<path fill-rule="evenodd" clip-rule="evenodd" d="M15 39.3447C15 30.9439 15 26.7435 16.6349 23.5348C18.073 20.7124 20.3677 18.4177 23.1901 16.9796C26.3988 15.3447 30.5992 15.3447 39 15.3447H41C49.4008 15.3447 53.6012 15.3447 56.8099 16.9796C59.6323 18.4177 61.927 20.7124 63.3651 23.5348C65 26.7435 65 30.9439 65 39.3447V41.3447C65 49.7455 65 53.9459 63.3651 57.1546C61.927 59.977 59.6323 62.2717 56.8099 63.7098C53.6012 65.3447 49.4008 65.3447 41 65.3447H39C30.5992 65.3447 26.3988 65.3447 23.1901 63.7098C20.3677 62.2717 18.073 59.977 16.6349 57.1546C15 53.9459 15 49.7455 15 41.3447V39.3447ZM39 20.3447H41C45.2829 20.3447 48.1944 20.3486 50.4448 20.5325C52.6369 20.7116 53.7579 21.0362 54.5399 21.4346C56.4215 22.3934 57.9513 23.9232 58.9101 25.8048C59.3085 26.5868 59.6331 27.7078 59.8122 29.8999C59.9961 32.1503 60 35.0618 60 39.3447V41.3447C60 45.6276 59.9961 48.5391 59.8122 50.7895C59.6331 52.9816 59.3085 54.1026 58.9101 54.8846C57.9513 56.7662 56.4215 58.296 54.5399 59.2548C53.7579 59.6532 52.6369 59.9778 50.4448 60.1569C48.1944 60.3408 45.2829 60.3447 41 60.3447H39C34.7171 60.3447 31.8056 60.3408 29.5552 60.1569C27.3631 59.9778 26.2421 59.6532 25.4601 59.2548C23.5785 58.296 22.0487 56.7662 21.0899 54.8846C20.6915 54.1026 20.3669 52.9816 20.1878 50.7895C20.0039 48.5391 20 45.6276 20 41.3447V39.3447C20 35.0618 20.0039 32.1503 20.1878 29.8999C20.3669 27.7078 20.6915 26.5868 21.0899 25.8048C22.0487 23.9232 23.5785 22.3934 25.4601 21.4346C26.2421 21.0362 27.3631 20.7116 29.5552 20.5325C31.8056 20.3486 34.7171 20.3447 39 20.3447Z" fill="white"/>
<defs>
<radialGradient id="paint0_radial_324_398" cx="0" cy="0" r="1" gradientUnits="userSpaceOnUse" gradientTransform="translate(30 57.8447) rotate(-55.3758) scale(63.799)">
<stop stop-color="#B13589"/>
<stop offset="0.79309" stop-color="#C62F94"/>
<stop offset="1" stop-color="#8A3AC8"/>
</radialGradient>
<radialGradient id="paint1_radial_324_398" cx="0" cy="0" r="1" gradientUnits="userSpaceOnUse" gradientTransform="translate(27.5 77.8447) rotate(-65.1363) scale(56.4856)">
<stop stop-color="#E0E8B7"/>
<stop offset="0.444662" stop-color="#FB8A2E"/>
<stop offset="0.71474" stop-color="#E2425C"/>
<stop offset="1" stop-color="#E2425C" stop-opacity="0"/>
</radialGradient>
<radialGradient id="paint2_radial_324_398" cx="0" cy="0" r="1" gradientUnits="userSpaceOnUse" gradientTransform="translate(1.25 7.84473) rotate(-8.1301) scale(97.2272 20.7959)">
<stop offset="0.156701" stop-color="#406ADC"/>
<stop offset="0.467799" stop-color="#6A45BE"/>
<stop offset="1" stop-color="#6A45BE" stop-opacity="0"/>
</radialGradient>
</defs>
</svg>
