<svg width="72" height="82" viewBox="0 0 72 82" fill="none" xmlns="http://www.w3.org/2000/svg">
<g clip-path="url(#clip0_209_138)">
<path d="M36.0164 22.5822C25.795 22.5822 17.5503 30.7982 17.5503 40.9842C17.5503 51.1701 25.795 59.3861 36.0164 59.3861C46.2378 59.3861 54.4825 51.1701 54.4825 40.9842C54.4825 30.7982 46.2378 22.5822 36.0164 22.5822ZM36.0164 52.9478C29.411 52.9478 24.011 47.5826 24.011 40.9842C24.011 34.3857 29.395 29.0205 36.0164 29.0205C42.6378 29.0205 48.0218 34.3857 48.0218 40.9842C48.0218 47.5826 42.6218 52.9478 36.0164 52.9478ZM59.545 21.8295C59.545 24.2158 57.6164 26.1217 55.2378 26.1217C52.8432 26.1217 50.9307 24.1998 50.9307 21.8295C50.9307 19.4592 52.8593 17.5373 55.2378 17.5373C57.6164 17.5373 59.545 19.4592 59.545 21.8295ZM71.7753 26.1857C71.5021 20.4361 70.1843 15.3432 65.9575 11.1471C61.7468 6.95098 56.6361 5.6377 50.8664 5.34941C44.92 5.01309 27.0968 5.01309 21.1503 5.34941C15.3968 5.62168 10.286 6.93496 6.05926 11.1311C1.83248 15.3271 0.530692 20.4201 0.241406 26.1697C-0.0960937 32.0955 -0.0960937 49.8568 0.241406 55.7826C0.514621 61.5322 1.83248 66.6252 6.05926 70.8213C10.286 75.0174 15.3807 76.3307 21.1503 76.6189C27.0968 76.9553 44.92 76.9553 50.8664 76.6189C56.6361 76.3467 61.7468 75.0334 65.9575 70.8213C70.1682 66.6252 71.4861 61.5322 71.7753 55.7826C72.1128 49.8568 72.1128 32.1115 71.7753 26.1857ZM64.0932 62.1408C62.8396 65.2799 60.4128 67.6982 57.2468 68.9635C52.5057 70.8373 41.2557 70.4049 36.0164 70.4049C30.7771 70.4049 19.511 70.8213 14.786 68.9635C11.636 67.7143 9.20926 65.2959 7.93962 62.1408C6.05926 57.4162 6.49319 46.2053 6.49319 40.9842C6.49319 35.7631 6.07534 24.5361 7.93962 19.8275C9.19319 16.6885 11.62 14.2701 14.786 13.0049C19.5271 11.1311 30.7771 11.5635 36.0164 11.5635C41.2557 11.5635 52.5218 11.1471 57.2468 13.0049C60.3968 14.2541 62.8235 16.6725 64.0932 19.8275C65.9735 24.5521 65.5396 35.7631 65.5396 40.9842C65.5396 46.2053 65.9735 57.4322 64.0932 62.1408Z" fill="#383329"/>
</g>
<defs>
<clipPath id="clip0_209_138">
<rect width="72" height="82" fill="white"/>
</clipPath>
</defs>
</svg>
