<svg width="49" height="49" viewBox="0 0 49 49" fill="none" xmlns="http://www.w3.org/2000/svg">
<path d="M43.2963 44.7598C42.5827 46.1603 41.1128 47.0303 39.5502 46.86C38.8786 46.7868 38.2077 46.6972 37.538 46.5911C28.8097 45.2086 20.7431 41.0986 14.4943 34.8498C8.24557 28.601 4.13544 20.5344 2.75298 11.8061C2.64698 11.1369 2.55746 10.4664 2.48421 9.79525C2.31386 8.23262 3.18389 6.76268 4.58438 6.04907L10.7137 2.92606C13.0859 1.71733 15.9563 3.12724 16.7905 5.6555C17.2965 7.18893 17.894 8.69789 18.5823 10.1741C18.9273 10.9139 19.2932 11.6414 19.6793 12.356C20.5934 14.0479 19.9768 16.2178 18.2262 17.0135C15.6837 18.1692 15.0781 21.5085 17.053 23.4834L25.8607 32.2911C27.8355 34.266 31.1749 33.6604 32.3306 31.1179C33.1702 29.2707 35.4461 28.602 37.2531 29.5246C37.6913 29.7483 38.134 29.9645 38.5812 30.173C40.2756 30.9631 42.0132 31.6335 43.7813 32.1832C46.3556 32.9835 47.8168 35.888 46.5928 38.29L43.2963 44.7598Z" stroke="#7D4B31" stroke-width="3" stroke-linecap="round" stroke-linejoin="round"/>
</svg>
