<svg width="80" height="81" viewBox="0 0 80 81" fill="none" xmlns="http://www.w3.org/2000/svg">
<path d="M40 75.3447C59.33 75.3447 75 59.6747 75 40.3447C75 21.0148 59.33 5.34473 40 5.34473C20.67 5.34473 5 21.0148 5 40.3447C5 59.6747 20.67 75.3447 40 75.3447Z" fill="white"/>
<path d="M40 75.3447C59.33 75.3447 75 59.6747 75 40.3447C75 21.0147 59.33 5.34473 40 5.34473C20.67 5.34473 5 21.0147 5 40.3447C5 54.545 13.4567 66.7701 25.6087 72.2585C25.625 71.8799 25.6434 71.5327 25.6591 71.2349C25.6805 70.8291 25.6971 70.5152 25.6971 70.3387C25.6971 69.287 26.4123 64.0706 26.4123 64.0706L30.7873 46.1079C30.1142 45.0141 29.6094 42.7004 29.6094 40.9336C29.6094 32.7726 34.1527 31.0057 36.9291 31.0057C40.4627 31.0057 41.262 34.8339 41.262 37.6524C41.262 39.1432 40.4887 41.4768 39.6929 43.8782C38.8494 46.4233 37.9808 49.0446 37.9808 50.8194C37.9808 54.269 41.3882 55.9937 43.744 55.9937C49.97 55.9937 55.6911 48.1692 55.6911 40.3447C55.6911 32.5202 52.0313 23.055 40.0421 23.055C28.0529 23.055 22.6683 32.1836 22.6683 39.1668C22.6683 43.8783 24.4351 47.3278 25.3185 47.9168C25.5709 48.1411 26 48.8339 25.6971 49.8098C25.3942 50.7858 24.8418 52.9649 24.6034 53.9324C24.5753 54.1568 24.3089 54.5382 23.4676 54.269C22.4159 53.9324 15.7272 49.7257 15.7272 39.1668C15.7272 28.6079 24.0144 16.3242 40.0421 16.3242C56.0697 16.3242 64.2728 27.0935 64.2728 40.3447C64.2728 53.5959 53.5457 62.0514 45.3846 62.0514C38.8558 62.0514 36.2981 59.1347 35.8353 57.6764L33.3534 67.1415C32.7673 68.7118 31.6741 71.5341 30.3259 73.9906C33.3984 74.8724 36.644 75.3447 40 75.3447Z" fill="#BB0F23"/>
</svg>
