<svg width="70" height="73" viewBox="0 0 70 73" fill="none" xmlns="http://www.w3.org/2000/svg">
<path d="M70 36.5C70 56.0332 54.3347 71.8594 35 71.8594C31.3871 71.8594 27.9153 71.3033 24.6411 70.2768C26.0665 67.9242 28.1976 64.0746 28.9879 61.0092C29.4113 59.3553 31.1613 52.5971 31.1613 52.5971C32.3044 54.7928 35.6351 56.6605 39.1774 56.6605C49.7339 56.6605 57.3407 46.8512 57.3407 34.6607C57.3407 22.9836 47.8992 14.2436 35.7621 14.2436C20.6613 14.2436 12.631 24.4807 12.631 35.6445C12.631 40.8344 15.369 47.2932 19.7298 49.3463C20.3931 49.66 20.746 49.5174 20.9012 48.8758C21.0141 48.391 21.6069 45.9814 21.875 44.8693C21.9597 44.5129 21.9173 44.1992 21.6351 43.857C20.2097 42.0748 19.0524 38.824 19.0524 35.7871C19.0524 27.9881 24.8952 20.4457 34.8589 20.4457C43.4536 20.4457 49.4798 26.3627 49.4798 34.8318C49.4798 44.3988 44.6956 51.0287 38.4718 51.0287C35.0423 51.0287 32.4597 48.1629 33.2923 44.6412C34.2802 40.4352 36.1855 35.9012 36.1855 32.8643C36.1855 30.1553 34.746 27.8883 31.754 27.8883C28.2399 27.8883 25.4173 31.5525 25.4173 36.4715C25.4173 39.6082 26.4617 41.7184 26.4617 41.7184C26.4617 41.7184 23.004 56.518 22.369 59.284C21.6633 62.3352 21.9456 66.641 22.2419 69.4355C9.22984 64.2885 0 51.485 0 36.5C0 16.9668 15.6653 1.14062 35 1.14062C54.3347 1.14062 70 16.9668 70 36.5Z" fill="#383329"/>
</svg>
